<svg xmlns="http://www.w3.org/2000/svg" xmlns:xlink="http://www.w3.org/1999/xlink" viewBox="0 0 520.9 119" aria-labelledby="title" role="img">
	<title>Gundalow Juice logo</title>
<g>
	<path fill="#231F20" d="M190.1,105.9c-0.2,0.6-0.5,1.3-0.9,2.2c-0.4,0.9-0.8,1.8-1.4,2.8c-0.5,1-1.2,1.9-1.8,2.9
		c-0.7,1-1.4,1.8-2.2,2.6c-0.8,0.8-1.7,1.4-2.6,1.9c-0.9,0.5-1.9,0.7-2.9,0.7c-0.5,0-1-0.1-1.6-0.2c-0.5-0.1-1-0.4-1.5-0.7
		c-0.4-0.3-0.8-0.7-1.1-1.2c-0.3-0.5-0.4-1.1-0.4-1.7c0-0.6,0.2-1.2,0.7-1.7c0.5-0.5,1-0.8,1.8-0.8c0.5,0,1,0.1,1.3,0.4
		c0.3,0.3,0.5,0.6,0.5,1.1c0,0.6-0.1,1-0.3,1.3c-0.2,0.3-0.3,0.7-0.3,1.3c0,0.5,0.2,0.9,0.5,1.1c0.3,0.3,0.8,0.4,1.3,0.4
		c1.9,0,3.7-2.4,5.3-7.1l10.3-28.3h-4.9l0.2-0.8h8.7L190.1,105.9z M198.8,67.5c0.5-0.5,1.1-0.7,1.8-0.7c0.7,0,1.3,0.2,1.8,0.7
		c0.5,0.5,0.7,1.1,0.7,1.8c0,0.7-0.2,1.3-0.7,1.8c-0.5,0.5-1.1,0.7-1.8,0.7c-0.7,0-1.3-0.2-1.8-0.7c-0.5-0.5-0.7-1.1-0.7-1.8
		C198.1,68.6,198.3,68,198.8,67.5z"/>
	<path fill="#231F20" d="M225.2,82.1L219,99.9c-0.3,0.8-0.5,1.4-0.6,2c-0.1,0.6-0.2,1-0.2,1.3c0,0.5,0.1,1,0.4,1.4
		c0.3,0.4,0.7,0.6,1.4,0.6c1,0,2-0.4,3.2-1.1c1.1-0.7,2.2-1.7,3.3-2.8c1.1-1.2,2.1-2.4,3-3.9c0.9-1.4,1.6-2.8,2.1-4.2l3.8-11.1h3.8
		l-6.4,18.3c-0.2,0.5-0.4,1.1-0.5,1.6c-0.2,0.6-0.3,1.1-0.3,1.6c0,0.4,0.1,0.8,0.4,1.1c0.3,0.3,0.6,0.5,1.1,0.5
		c0.6,0,1.2-0.2,1.8-0.6c0.6-0.4,1.1-0.9,1.5-1.4c0.5-0.5,0.8-1.1,1.2-1.6c0.3-0.5,0.6-1,0.7-1.3l0.6,0.3c-0.1,0.3-0.4,0.7-0.7,1.3
		c-0.3,0.6-0.7,1.2-1.3,1.8c-0.5,0.6-1.2,1.1-2,1.5c-0.8,0.4-1.7,0.6-2.8,0.6c-1.2,0-2.1-0.2-2.8-0.7c-0.7-0.5-1.1-1.3-1.1-2.5
		c0-0.6,0.1-1.2,0.2-1.8c0.1-0.6,0.4-1.2,0.6-1.9l-0.1-0.1c-0.5,0.6-1.1,1.4-1.8,2.2c-0.7,0.8-1.5,1.6-2.3,2.3
		c-0.8,0.7-1.7,1.3-2.6,1.8c-0.9,0.5-1.9,0.7-2.8,0.7c-1.5,0-2.8-0.4-3.7-1.1c-0.9-0.7-1.4-1.8-1.4-3.1c0-0.5,0.1-1.2,0.4-1.9
		c0.3-0.7,0.5-1.4,0.6-2l5.3-15h-4.8l0.2-0.8H225.2z"/>
	<path fill="#231F20" d="M257,82.9l0.2-0.8h8.6l-6.4,18.3c-0.2,0.5-0.4,1.1-0.5,1.6c-0.2,0.6-0.3,1.1-0.3,1.6c0,0.4,0.1,0.8,0.4,1.1
		c0.3,0.3,0.6,0.5,1.1,0.5c0.6,0,1.1-0.2,1.7-0.6c0.6-0.4,1.1-0.9,1.5-1.4c0.5-0.5,0.9-1.1,1.2-1.6c0.3-0.5,0.6-1,0.7-1.3l0.6,0.3
		c-0.1,0.3-0.4,0.7-0.7,1.3c-0.3,0.6-0.7,1.2-1.3,1.8c-0.5,0.6-1.2,1.1-2,1.5c-0.8,0.4-1.7,0.6-2.8,0.6c-1.2,0-2.1-0.2-2.8-0.7
		c-0.7-0.5-1.1-1.3-1.1-2.5c0-0.6,0.1-1.3,0.3-2c0.2-0.7,0.4-1.4,0.6-2l5.6-15.8H257z M265.9,67.5c0.5-0.5,1.1-0.7,1.8-0.7
		c0.7,0,1.3,0.2,1.8,0.7c0.5,0.5,0.7,1.1,0.7,1.8c0,0.7-0.2,1.3-0.7,1.8c-0.5,0.5-1.1,0.7-1.8,0.7c-0.7,0-1.3-0.2-1.8-0.7
		c-0.5-0.5-0.7-1.1-0.7-1.8C265.1,68.6,265.4,68,265.9,67.5z"/>
	<path fill="#231F20" d="M299,102.1c-0.6,0.7-1.3,1.3-2.1,1.9c-0.8,0.6-1.7,1-2.7,1.4c-1,0.4-2.1,0.5-3.4,0.5
		c-1.3,0-2.5-0.2-3.6-0.6c-1-0.4-1.9-1-2.6-1.8c-0.7-0.7-1.2-1.6-1.6-2.6c-0.4-1-0.6-2-0.6-3.1c0-1.8,0.4-3.7,1.3-5.6
		c0.9-1.9,2-3.7,3.5-5.3c1.4-1.6,3.1-2.9,4.9-3.9c1.9-1,3.8-1.5,5.8-1.5c0.6,0,1.2,0.1,1.8,0.2c0.6,0.1,1.1,0.4,1.6,0.7
		c0.5,0.3,0.9,0.8,1.2,1.3c0.3,0.6,0.5,1.3,0.5,2.1c0,1.2-0.3,2-0.9,2.3c-0.6,0.4-1.2,0.5-1.9,0.5c-0.6,0-1.1-0.1-1.4-0.4
		c-0.3-0.3-0.4-0.6-0.4-0.9c0-0.4,0.1-0.8,0.2-1.1c0.1-0.3,0.3-0.5,0.5-0.7c0.2-0.2,0.4-0.5,0.5-0.7c0.1-0.3,0.2-0.6,0.2-1.1
		c0-0.6-0.2-1-0.6-1.2c-0.4-0.2-1-0.3-1.7-0.3c-1.2,0-2.2,0.3-3.2,0.9c-1,0.6-1.9,1.3-2.8,2.3c-0.8,1-1.6,2-2.2,3.3
		c-0.6,1.2-1.2,2.5-1.7,3.8c-0.5,1.3-0.8,2.6-1.1,3.8c-0.2,1.3-0.4,2.4-0.4,3.5c0,1.6,0.4,2.9,1.3,3.9c0.9,1.1,2.2,1.6,4.1,1.6
		c1,0,1.9-0.2,2.8-0.6c0.8-0.4,1.6-0.9,2.3-1.4c0.7-0.6,1.3-1.2,1.8-1.9c0.5-0.7,0.9-1.3,1.2-1.8l0.8,0.4
		C300.1,100.7,299.6,101.4,299,102.1z"/>
	<path fill="#231F20" d="M333.4,101.4c-0.4,0.7-1,1.3-1.8,2c-0.8,0.7-1.7,1.3-2.8,1.8c-1.1,0.5-2.4,0.8-4,0.8
		c-1.5,0-2.9-0.3-3.9-0.8c-1.1-0.5-1.9-1.2-2.6-1.9c-0.7-0.8-1.2-1.7-1.5-2.6c-0.3-1-0.5-1.9-0.5-2.8c0-1.8,0.4-3.7,1.3-5.6
		c0.9-1.9,2-3.7,3.5-5.3c1.4-1.6,3-2.9,4.8-4c1.8-1,3.6-1.6,5.5-1.6c0.7,0,1.4,0.1,2.2,0.2c0.7,0.2,1.4,0.4,1.9,0.7
		c0.6,0.3,1,0.7,1.4,1.2c0.4,0.5,0.5,1.1,0.5,1.8c0,1-0.3,1.8-0.8,2.6c-0.5,0.7-1.2,1.4-2,1.9c-0.8,0.5-1.7,1-2.7,1.3
		c-1,0.4-2,0.6-2.9,0.8c-0.9,0.2-1.8,0.3-2.6,0.4c-0.8,0.1-1.3,0.1-1.7,0.1c-0.6,0-1.2,0-1.8-0.1c-0.6,0-1.1-0.1-1.5-0.2
		c-0.4,1.2-0.7,2.3-1,3.4c-0.3,1.1-0.4,2.3-0.4,3.6c0,1.9,0.5,3.4,1.5,4.3c1,1,2.3,1.4,3.8,1.4c1.2,0,2.2-0.2,3.1-0.7
		c0.9-0.4,1.7-1,2.3-1.6c0.7-0.6,1.2-1.2,1.7-1.9c0.5-0.6,0.8-1.1,1.1-1.5l0.6,0.4C334.2,100.2,333.9,100.7,333.4,101.4z
		 M333.7,82.9c-0.4-0.5-1.2-0.8-2.2-0.8c-1.1,0-2.2,0.3-3.2,1c-1,0.6-2,1.5-2.8,2.4c-0.8,1-1.5,2-2.2,3.1c-0.6,1.1-1.1,2.1-1.4,3.1
		c0.8,0.1,1.7,0.2,2.8,0.2c1.3,0,2.5-0.2,3.7-0.6c1.2-0.4,2.2-0.9,3.1-1.6c0.9-0.6,1.6-1.4,2.1-2.3c0.5-0.9,0.8-1.8,0.8-2.7
		C334.3,84,334.1,83.4,333.7,82.9z"/>
</g>
<g>
	<path fill="#231F20" d="M37.1,0.7H38L38.3,16h-1.7c-0.6-1.8-1.1-2.6-1.6-3.7c-0.5-1.1-1-2-1.6-2.8c-1.6-2.4-2.7-4.1-5.3-5.7
		c-2.4-1.5-5.1-2.1-7.7-2.1c-1.4,0-2.7,0.3-4.1,0.8c-1.4,0.5-2.4,1.2-3.3,2c-1.4,1.4-2.4,3.3-3,5.7C9.4,12.7,9,15.2,9,19
		c0,1.2,0,1.5,0.2,2.6c0.1,1.1,0.2,2.1,0.4,3c0.2,0.9,0.4,1.7,0.6,2.6c0.2,0.8,0.5,1.5,0.8,2.1c0.5,0.9,1.1,1.6,1.8,2.3
		c0.7,0.7,1.4,1.2,2.3,1.7c0.9,0.5,1.8,0.8,2.8,1.1c1,0.2,2.1,0.3,3.2,0.3c1.4,0,2.8-0.2,4.3-0.5c1.4-0.4,2.6-0.8,3.4-1.4
		c1.7-1.1,2.5-2.7,2.5-4.6V28c0-4.2-2.1-6.4-6.4-6.4h-3v-1.7h24v1.7h-0.8c-2.2,0-3.8,0.5-4.8,1.6c-1,1-1.6,2.6-1.6,4.8v7.4h-0.9
		c-0.8-0.7-1.4-1.2-2-1.4c-0.6-0.2-1.3-0.3-2.1-0.3c-0.7,0-1.4,0.1-2,0.2c-0.6,0.1-1.5,0.4-2.6,0.9c-1.8,0.7-3.3,1.1-4.3,1.3
		c-1.1,0.2-2.4,0.3-3.9,0.3c-2.9,0-5.7-0.4-8.2-1.3C10,34.2,7.8,33,5.9,31.3c-1.9-1.6-3.3-3.5-4.4-5.8C0.5,23.4,0,21,0,18.5
		c0-1.5,0.2-3.1,0.6-4.5c0.4-1.5,1-2.9,1.7-4.2C3.1,8.5,4,7.2,5.1,6.1c1.3-1.3,2.7-2.4,4.3-3.3c1.6-0.9,3.2-1.6,5-2.1
		c1.7-0.5,3.5-0.7,5.2-0.7c1.7,0,3.4,0.2,5.1,0.7c1.7,0.4,3.5,1.2,5.5,2.1C31.7,3.6,32.7,4,33.3,4c0.6,0,1.2-0.2,1.8-0.7
		C35.7,2.8,36.4,1.8,37.1,0.7z"/>
	<path fill="#231F20" d="M66.7,0.7H91v1.7h-2.8c-2.1,0-3.7,0.5-4.8,1.6c-1.1,1-1.6,2.6-1.6,4.8V25c0,2,0.5,3.8,1.4,5.2
		c0.9,1.5,2.3,2.6,4,3.4c1.8,0.8,3.8,1.2,6.3,1.2c2.1,0,4.1-0.3,5.9-0.9c1.8-0.6,2.9-1.4,3.9-2.5c2-2,3-4.9,3-8.6v-11
		c0-4-1.2-6.7-3.5-8.2c-0.7-0.4-0.9-0.7-1.7-0.9c-0.7-0.2-1.8-0.3-3.2-0.3V0.7h17v1.7c-1.1,0.1-1.5,0.2-2.1,0.4
		c-0.6,0.2-1.3,0.5-1.9,1c-1,0.7-2.1,1.7-2.6,2.9c-0.5,1.2-0.3,2.6-0.3,4.2v13.2c0,3.7-1.4,6.6-3.4,8.5c-1.1,1.1-2.3,1.8-3.6,2.3
		c-2.7,1-5.9,1.5-9.6,1.5c-2.7,0-5.2-0.3-7.4-0.8c-2.2-0.5-4.1-1.3-5.5-2.3c-2.7-1.9-4.1-4.6-4.1-8.1V8.8c0-4.2-2.1-6.4-6.4-6.4
		h-1.4V0.7z"/>
	<path fill="#231F20" d="M137,0.7h14.1l24,24.8V11.6c0-1.8-0.3-3.4-0.9-4.8c-0.6-1.4-1.4-2.4-2.6-3.2c-0.6-0.4-1-0.7-1.7-0.8
		c-1-0.3-1.9-0.3-2.7-0.4V0.7h17.3v1.7h-0.4c-2.5,0-4.1,0.8-5.4,2.4c-1.3,1.6-2,3.9-2,7v24.3h-1.2L145.7,5.4l0,19.6
		c0,2,0.2,3.6,0.7,4.8c0.5,1.2,0.9,2.2,2,2.8c0.9,0.5,2.4,0.9,3.6,1c0.7,0.1,1.3,0.2,2.6,0.2v1.7h-18.3V34c1.9-0.1,3-0.4,4.2-1
		c1.2-0.6,2-1.4,2.6-2.5c0.6-1.1,0.8-2.5,0.8-4.1V8.2c0-1.2-0.3-2.3-0.8-3.1c-0.5-0.9-1.3-1.5-2.4-2c-1-0.5-1.9-0.7-3.4-0.7H137V0.7
		z"/>
	<path fill="#231F20" d="M207.8,0.7h23.2c3.8,0,7.1,0.5,9.9,1.4c2.8,0.9,5.2,2.4,7.1,4.3c1.7,1.7,3.1,3.6,4,5.7
		c0.9,2.1,1.4,4.3,1.4,6.5c0,2.5-0.5,4.7-1.5,6.8c-1,2.1-2.5,3.9-4.3,5.4c-1.9,1.5-4.1,2.7-6.6,3.5c-2.6,0.8-5.3,1.2-8.3,1.2h-24.9
		V34h1.3c2.2,0,3.8-0.5,4.8-1.6c1-1,1.6-2.6,1.6-4.8V8.8c0-2.2-0.5-3.8-1.6-4.8c-1-1-2.6-1.6-4.8-1.6h-1.3V0.7z M222.9,2.4V34h6.8
		c1.9,0,3.6-0.1,4.9-0.3s2.5-0.6,3.5-1.1c1-0.5,1.9-1.1,2.6-1.9c2.8-2.8,4.2-6.4,4.2-12.3c0-1.9-0.2-3-0.5-4.7
		c-0.3-1.7-0.8-3.2-1.5-4.5c-0.7-1.3-1.5-2.4-2.5-3.4c-0.8-0.8-1.7-1.4-2.8-1.9c-1-0.5-2.2-0.8-3.6-1.1c-1.3-0.2-3-0.3-4.8-0.3
		H222.9z"/>
	<path fill="#231F20" d="M338.4,0.7h23.9v1.7h-2.5c-2.2,0-3.8,0.5-4.8,1.6c-1,1-1.6,2.6-1.6,4.8V34h8.3c1.8,0,3.8,0,5.4-0.8
		c1.6-0.8,2.6-1.5,3.8-2.9c0.7-0.9,1.3-1.8,1.9-2.6c0.5-0.9,1-1.9,1.5-3.2c0.5-1.2,1-2.7,1.4-4.3h1.7v15.5h-39l0-1.7h1.3
		c4.2,0,6.4-2.1,6.4-6.4V8.8c0-4.2-2.1-6.4-6.4-6.4h-1.3V0.7z"/>
	<path fill="#231F20" d="M422.5,0c3.3,0,6.3,0.5,9,1.6c2.7,1,5.1,2.6,7.1,4.6c1.7,1.7,3,3.6,3.9,5.7c0.9,2.1,1.4,4.2,1.4,6.4
		c0,3.3-0.9,6.3-2.8,9.1c-1.9,2.8-4.4,5-7.6,6.6c-3.2,1.6-6.7,2.4-10.5,2.4c-2.9,0-5.6-0.5-8.2-1.4c-2.6-0.9-4.8-2.2-6.8-3.9
		c-2-1.7-3.5-3.6-4.6-5.9c-1.1-2.2-1.6-4.6-1.6-7c0-3.2,0.9-6.3,2.8-9.1c1.9-2.8,4.4-5,7.6-6.7C415.3,0.8,418.7,0,422.5,0z
		 M423.1,1.7c-1.5,0-3,0.3-4.3,0.8c-1.3,0.5-2.5,1.3-3.4,2.2c-1,1.1-1.9,2.3-2.6,3.7c-0.7,1.4-1.2,3.1-1.6,4.8s-0.5,2.9-0.5,4.9
		c0,2.6,0.3,4.1,0.9,6.2c0.6,2.1,1.4,3.9,2.5,5.5c1.1,1.5,2.3,2.7,3.8,3.5c1.5,0.8,3.1,1.2,5,1.2c2.5,0,4.6-0.7,6.5-2.1
		c1.8-1.4,3.2-3.4,4.2-6.1c1-2.6,1.5-5,1.5-8.6c0-2.3-0.3-3.7-0.8-5.8c-0.5-2-1.3-3.8-2.3-5.3c-1-1.5-2.2-2.7-3.6-3.6
		c-0.7-0.5-1.5-0.8-2.4-1.1C424.8,1.9,424,1.7,423.1,1.7z"/>
	<path fill="#231F20" d="M462.2,0.7h18.2l0.1,1.7c-1.5,0-2.6,0.2-3.3,0.6c-0.7,0.4-1,1-1,1.8c0,0.8,0.2,0.9,0.5,1.8l7.2,19.8
		l7.1-17.8c-0.6-1.7-0.8-2.2-1.3-3c-0.4-0.8-0.7-1.2-1.5-1.8c-0.7-0.5-1.3-0.8-2-1c-0.6-0.3-1.5-0.3-2.5-0.3V0.7h19v1.7h-0.9
		c-1.5,0-2.9,0-3.7,0.5c-0.8,0.5-1,1-1,1.7c0,0.7,0.1,1.3,0.4,1.9l7.3,19.9L512,8.2c0.4-1,0.6-1.9,0.6-2.8c0-1.3-0.5-1.8-1.6-2.4
		c-1-0.5-2-0.6-4-0.7l-0.1-1.7h14.1v1.7c-0.9,0.1-1.2,0.2-1.8,0.4c-0.6,0.2-1.2,0.6-1.9,1.1c-1.4,1.1-2.6,2.1-3.6,4.6l-11.1,28h-1.3
		l-9.4-25.6l-10.2,25.6h-1.4L470.1,8.8c-0.9-2.5-1.6-3.8-2.7-5c-1.1-1.1-2.7-1.4-4.3-1.4h-0.9V0.7z"/>
	<path fill="#231F20" d="M315.7,34c-1,0-1.8-0.1-2.5-0.4c-0.7-0.3-1.6-0.6-2.2-1.2c-0.6-0.6-0.8-0.8-1.2-1.7L295.7,0h-1.4
		l-11.1,25.2c-1.7,3.8-3.4,5.6-5.2,7c-0.8,0.6-1.4,1-2,1.3c-0.6,0.3-0.9,0.4-2,0.6v1.7h14.3V34c-0.7,0-1.1-0.1-1.4-0.2
		s-0.7-0.2-1.1-0.5c-0.7-0.4-1-1-1.5-1.8c-0.4-0.8-0.6-1.2-0.6-2c0-0.9,0.2-1.3,0.5-2.2l1-2.2h14.7l0.4,0.9c0.1,0.2,0.2,0.4,0.3,0.7
		c0.1,0.2,0.2,0.4,0.2,0.5c0.8,1.8,1,2.2,1.3,2.9c0.2,0.7,0.5,1.4,0.5,1.9c0,0.8-0.1,1.1-0.7,1.5c-0.6,0.4-1.6,0.5-2.9,0.5h-2.7v1.7
		h20.3V34H315.7z M299,23.4h-13.1l6.5-14.7L299,23.4z"/>
</g>
</svg>
